<?xml version="1.0" encoding="UTF-8"?>
<svg id="Layer_2" data-name="Layer 2" xmlns="http://www.w3.org/2000/svg" viewBox="0 0 119.59 119.59">
  <defs>
    <style>
      .cls-1 {
        fill: none;
      }

      .cls-2 {
        fill: #bcbec0;
      }
    </style>
  </defs>
  <path class="cls-1" d="m46.78,111.96h0s.01-.01.01-.01c.21-.21.42-.42.64-.64,0,0,0,0-.01,0l.33-.35s.02-.02.03-.03c.08-.09.17-.18.25-.26l.18-.18h0c2.34-2.47,4.69-4.93,7.03-7.4,4.28-4.51,8.56-9.03,12.85-13.54,2.87-3.02,5.75-6.03,8.62-9.05,5.25-5.53,10.5-11.06,15.74-16.59,4.58-4.82,9.15-9.65,13.73-14.47.85-.9.84-.67.2-1.75-4.21-7.02-8.42-14.04-12.64-21.06-.15-.24-.33-.49-.56-.65-1.64-1.11-3.31-2.21-4.96-3.3-3.07-2.04-6.14-4.07-9.22-6.11-2.43-1.61-4.87-3.21-7.3-4.83-.27-.18-.46-.16-.69.06-4.05,3.91-8.1,7.81-12.16,11.72-2.68,2.58-5.36,5.17-8.04,7.75-4.67,4.5-9.34,9-14.01,13.51-2.88,2.78-5.75,5.56-8.63,8.34-4.58,4.42-9.16,8.83-13.74,13.24-2.3,2.22-4.59,4.44-6.89,6.65-.52.5-.53.57,0,1.07,1.9,1.75,3.81,3.5,5.71,5.25,1.71,1.57,3.41,3.15,5.11,4.73,2.81,2.59,5.65,5.15,8.42,7.78,1.35,1.28,2.6,2.68,3.88,4.04,2.13,2.26,4.25,4.52,6.37,6.78,2.6,2.77,5.19,5.55,7.78,8.32,0,0,0,0,0,0l.02.05.38.35c.14.15.27.3.4.46l.05.05h0c.1.12.21.23.32.34.18.18.38.18.56,0,.08-.08.16-.16.24-.25Z"/>
  <path class="cls-2" d="m106.96,47.7l-.17-.28c-4.21-7.02-8.42-14.04-12.64-21.06-.22-.37-.45-.63-.71-.81-1.32-.89-2.65-1.77-3.97-2.65l-12.79-8.46c-1.58-1.04-3.15-2.08-4.73-3.13-.47-.31-.91-.27-1.32.12-2.78,2.68-5.55,5.35-8.33,8.03L7.17,72.64c-.28.27-.55.53-.55.91,0,.38.29.64.56.89l10.82,9.98c.88.81,1.77,1.62,2.65,2.43,1.93,1.77,3.86,3.54,5.77,5.34.99.94,1.94,1.96,2.86,2.95.33.36.66.71,1,1.07,2.13,2.25,4.25,4.52,6.37,6.78l7.72,8.25c.03.05.06.1.11.14l.8.83c.11.12.22.24.33.36.23.23.47.28.63.28h0c.16,0,.41-.05.71-.35l.18-.18s.02-.02.02-.02l.63-.64s.06-.06.08-.1l20.59-21.68c1.45-1.53,2.9-3.05,4.35-4.57,1.42-1.49,2.84-2.98,4.26-4.48,3.94-4.15,7.88-8.3,11.82-12.46l17.65-18.6.25-.26c.69-.7.71-.96.18-1.82ZM10.83,71.42c.08-.02.16-.06.22-.12L69.6,14.8c-.09.3-.18.59-.26.87-.06.06-.09.14-.11.22l-.26,1.2c-.04.18.05.34.19.45l.36.83L11.76,73.5c-.1.1-.16.23-.15.37,0,.14.06.27.16.36l17.81,16.14c-.5.51-.91.94-1.23,1.26l-17.37-16.02-2.33-1.99,2.18-2.2Zm60.05-54.96l.96-3.18,13.9,9.2-14.86-6.02Zm6.32,21.58l4.45,4.42-4.34.07-.12-4.49Zm-.6,6.2h1.01s2.49-.05,2.49-.05c.58-.02,1.15-.03,1.82-.04.5,0,1.01-.02,1.51-.02.57,0,.95-.24,1.17-.72.08-.17.17-.33.27-.5l12.44,5.7s.11.05.14.05c.53.26,1.07.5,1.61.75l-53.36,55.92-13.81-15.12c10-10.24,40.32-41.44,44.71-45.96Zm1.29-8.01l12.86-7.39-7.25,12.96-5.61-5.57Zm.22-2.23l-6.68-15.47,19.76,8.01-13.08,7.46Zm-5.54-8.51c.13.31.27.61.4.91l.46-.2s0,0,0,0l-.4.35,1.08,2.5,1.22,2.82s.01.04.02.07l1.27,2.93c-.16.09-.31.18-.47.26-.42.21-.63.56-.63,1.06,0,.59,0,1.18,0,1.77v1.44s.16,3.6.16,3.6c-2.48,2.55-34.46,35.46-44.87,46.12l-16.86-15.28,56.31-53.73,2.32,5.38Zm13.13,15.92l7.33-12.97,7.76,19.88-15.09-6.91Zm-55.05,50.05l14.66,16.04c.09.1.23.16.36.16.15,0,.27-.05.37-.16l54.71-57.34.76.34c.65.43,1.27.27,1.68.1.1-.04.19-.08.29-.11l-20.07,21.14c-4.76,5.01-9.53,10.03-14.3,15.04l-21.93,23.08c-.08.08-.14.16-.19.24l-.61.65-.1.08-1.27-1.32c-1.18-1.25-2.36-2.5-3.53-3.75l-7.78-8.32c-.99-1.05-1.98-2.1-2.97-3.15l-1.36-1.45c.32-.33.75-.77,1.27-1.3Zm66.92-56.08l7.63,12.72-2.34.81-5.29-13.54Z"/>
  <path class="cls-2" d="m108.49,119.59H11.1c-6.12,0-11.1-4.98-11.1-11.1V11.1C0,4.98,4.98,0,11.1,0h97.39c6.12,0,11.1,4.98,11.1,11.1v97.39c0,6.12-4.98,11.1-11.1,11.1ZM11.1,1C5.53,1,1,5.53,1,11.1v97.39c0,5.57,4.53,10.1,10.1,10.1h97.39c5.57,0,10.1-4.53,10.1-10.1V11.1c0-5.57-4.53-10.1-10.1-10.1H11.1Z"/>
</svg>