<?xml version="1.0" encoding="UTF-8"?>
<svg id="Layer_1" data-name="Layer 1" xmlns="http://www.w3.org/2000/svg" viewBox="0 0 119.59 119.59">
  <defs>
    <style>
      .cls-1 {
        fill: none;
        stroke: #231f20;
        stroke-miterlimit: 10;
      }

      .cls-2 {
        fill: #ec828a;
      }

      .cls-3 {
        fill: #231f20;
      }
    </style>
  </defs>
  <g>
    <path class="cls-2" d="m95.84,62.12c-2.77-3.44-5.53-6.87-8.3-10.31-2.05-2.55-4.1-5.1-6.17-7.63-.15-.18-.41-.31-.65-.36-2.7-.6-5.41-1.18-8.12-1.76-.2-.04-.32-.13-.39-.32-.17-.43-.36-.85-.54-1.28-1.25-2.93-2.5-5.87-3.76-8.8-.2-.48-.29-.53-.8-.52-.91.02-1.83.04-2.74.06-4.84.09-9.69.18-14.53.28-.39,0-.78,0-1.16.05-.16.02-.33.17-.45.3-.1.11-.14.29-.21.43-1.55,3.57-3.1,7.13-4.64,10.7-.09.21-.21.33-.44.41-2.68.91-5.36,1.82-8.04,2.75-.19.06-.38.22-.48.38-.51.8-.98,1.62-1.47,2.43-3.14,5.23-6.29,10.47-9.43,15.7-.6,1-.42,1.82.53,2.47,3.13,2.14,6.27,4.28,9.41,6.42.25.17.33.33.32.63-.1,4.12-.19,8.24-.28,12.37-.03,1.24.66,1.92,1.9,1.92,7.34,0,14.69,0,22.03,0h0c7.36,0,14.73-.01,22.09,0,1.09,0,1.87-.79,1.87-1.87-.03-4.69-.01-9.39-.02-14.08,0-.21.03-.35.25-.46,2.58-1.32,5.16-2.65,7.74-3.97,2.05-1.06,4.11-2.11,6.16-3.17.64-.33.93-.86.91-1.57-.02-.49-.3-.84-.58-1.19Z"/>
    <path class="cls-3" d="m96.42,63.32c-.02-.49-.3-.84-.58-1.19-2.77-3.44-5.53-6.87-8.3-10.31-2.05-2.55-4.1-5.1-6.17-7.63-.15-.18-.41-.31-.65-.36-2.7-.6-5.41-1.18-8.12-1.76-.2-.04-.32-.13-.39-.32-.17-.43-.36-.85-.54-1.28-1.25-2.93-2.5-5.87-3.76-8.8-.2-.48-.29-.53-.8-.52-.91.02-1.83.04-2.74.06-4.84.09-9.69.18-14.53.28-.39,0-.78,0-1.16.05-.16.02-.33.17-.45.3-.1.11-.14.29-.21.43-1.55,3.57-3.1,7.13-4.64,10.7-.09.21-.21.33-.44.41-2.68.91-5.36,1.82-8.04,2.75-.19.06-.38.22-.48.38-.51.8-.98,1.62-1.47,2.43-3.14,5.23-6.29,10.47-9.43,15.7-.6,1-.42,1.82.53,2.47,3.13,2.14,6.27,4.28,9.41,6.41.25.17.33.33.32.63-.1,4.12-.19,8.24-.28,12.37-.03,1.24.66,1.92,1.9,1.92,7.34,0,14.69,0,22.03,0h0c7.36,0,14.73-.01,22.09,0,1.09,0,1.87-.79,1.87-1.87-.03-4.69-.01-9.39-.02-14.08,0-.21.03-.35.25-.46,2.58-1.32,5.16-2.65,7.74-3.97,2.05-1.06,4.11-2.11,6.16-3.17.64-.33.93-.86.91-1.57Zm-62.61,9.3c-2.78-1.91-5.52-3.78-8.3-5.69,2.91-4.8,5.81-9.57,8.7-14.34.02,0,.05.01.07.02-.16,6.65-.31,13.3-.47,20Zm.51-22.09c0,.1-.08.2-.14.29-3.09,5.08-6.18,10.16-9.27,15.23-.07.11-.13.21-.2.32-.59-.31-.72-.67-.43-1.15,2.39-3.98,4.78-7.96,7.17-11.94.92-1.54,1.85-3.08,2.78-4.61.03-.04.06-.08.1-.14,0,.69,0,1.35,0,2.01Zm36.31-10.07c.24.57.49,1.13.71,1.69.03.07-.08.23-.17.29-1.28.97-2.56,1.92-3.85,2.88-.65.49-1.3.98-1.98,1.49-2.34-2.48-4.66-4.92-7.01-7.41.4-.32.78-.64,1.2-.97.43.48.86.95,1.29,1.43,1.29,1.42,2.57,2.84,3.86,4.26.42.46.58.47,1.09.08,1.55-1.2,3.1-2.39,4.65-3.59.06-.05.12-.08.21-.15Zm-11.56,7.21c-1.25-.06-2.49-.07-3.74-.09-.22,0-.35-.07-.48-.25-.57-.82-1.15-1.63-1.75-2.48,1.51-1.61,2.99-3.19,4.51-4.8,1.44,1.52,2.87,3.03,4.31,4.54-.67.9-1.34,1.77-1.97,2.67-.23.33-.48.43-.88.41Zm1.5,6.18c.78,3.7,1.57,7.41,2.36,11.11.43,2.05.88,4.09,1.31,6.14.03.13-.03.33-.12.41-2.31,2.13-4.63,4.25-6.95,6.37-.03.03-.06.05-.15.11.26-9.83.53-19.59.79-29.36.54,0,1.05,0,1.55.01.06,0,.15.16.17.25.35,1.65.69,3.3,1.04,4.94Zm6.6-21.49c.2.46.39.9.58,1.34.79,1.85,1.57,3.69,2.37,5.53.11.26.07.39-.15.55-1.55,1.18-3.09,2.37-4.67,3.58-1.66-1.83-3.32-3.66-5-5.53,2.3-1.83,4.57-3.64,6.88-5.48Zm-17.09.08c5.25-.1,10.49-.21,15.83-.31-.13.11-.2.18-.27.24-2.61,2.08-5.22,4.15-7.82,6.24-.21.17-.32.06-.46-.06-1.4-1.16-2.8-2.32-4.2-3.48-.91-.75-1.83-1.5-2.75-2.25-.12-.1-.24-.21-.36-.31,0-.03.02-.05.03-.08Zm-4.84,8.7c1.2-2.77,2.4-5.53,3.62-8.36,2.08,1.71,4.14,3.41,6.22,5.12-2.01,2.1-4,4.17-6.01,6.26-1.26-.91-2.49-1.79-3.73-2.67-.13-.09-.19-.17-.11-.34Zm-.48,1.1c1.05.75,2.08,1.48,3.1,2.21.26.19.52.38.78.57.46.34.63.32,1.02-.09,1.35-1.42,2.71-2.83,4.06-4.25.69-.72,1.38-1.44,2.08-2.18.37.31.72.6,1.09.9-2.48,2.64-4.94,5.27-7.41,7.91-1.76-1.28-3.5-2.55-5.27-3.83.19-.44.36-.83.53-1.25Zm11.39,45.24c-.14,0-.25,0-.37,0-3.39,0-6.77,0-10.16,0h0s-4.04,0-4.04,0c-.84,0-1.69,0-2.53,0-.03,0-.05,0-.08,0h-2.47c-.24,0-.48,0-.72,0-.2,0-.39,0-.59,0-.45,0-.72-.3-.71-.78.02-1.54.05-3.08.09-4.62.05-2.54.11-5.08.17-7.62.12-5.08.24-10.16.36-15.24.08-3.21.14-6.41.22-9.62.02-.8.04-1.59.05-2.39,0-.18.07-.26.24-.32,2.59-.88,5.18-1.76,7.77-2.63.11-.04.29.02.4.1,1.4,1,2.79,2.02,4.18,3.03.4.29.79.59,1.2.87.35.24.55.22.85-.1.73-.77,1.46-1.55,2.19-2.33.07-.08.13-.17.25-.32.05.11.07.16.1.2.53.76,1.06,1.52,1.6,2.26.12.17.14.3.08.5-1.52,5.15-3.03,10.29-4.54,15.44-.1.35-.2.7-.31,1.09,0,0,0,0,0,0l-.39,1.31c-.31,1.11-.63,2.21-.96,3.31-.09.31-.04.55.17.8,2.35,2.8,4.67,5.64,7.05,8.41.56.66.76,1.31.77,2.14,0,2.05.09,4.11.14,6.16,0,.1,0,.21,0,.35Zm-.08-9.18c-.12-.13-.21-.22-.29-.31-2.2-2.65-4.4-5.3-6.61-7.94-.15-.18-.17-.33-.1-.55,1.98-6.74,3.96-13.48,5.93-20.23.21-.73.21-.73.97-.7.29.01.58,0,.9,0-.27,9.93-.53,19.79-.8,29.73Zm23.43,9.18c-7.33,0-14.66,0-22,0-.12,0-.23,0-.47,0,0-1.04.01-2.03,0-3.02-.03-1.54-.07-3.08-.12-4.62-.01-.3.08-.49.3-.69,2.57-2.35,5.12-4.71,7.69-7.05.33-.3.44-.59.34-1.04-1.3-6.02-2.58-12.05-3.86-18.08-.32-1.5-.63-3-.93-4.51-.02-.1-.02-.25.04-.32.66-.91,1.32-1.8,1.99-2.7.04-.05.07-.11.11-.17.77.81,1.49,1.57,2.22,2.33.4.41.53.42.98.08,2.04-1.53,4.08-3.06,6.12-4.59.12-.09.32-.15.46-.12,2.63.55,5.25,1.12,7.87,1.69.05.01.1.03.19.06,0,.09,0,.2,0,.3,0,13.83,0,27.67,0,41.5,0,.7-.23.93-.93.93Zm1.91-16.39v-21.79c4.2,5.13,8.35,10.22,12.54,15.34-4.18,2.15-8.34,4.29-12.54,6.45Zm13.43-6.92c-.6-.72-1.2-1.45-1.8-2.18-3.84-4.69-7.67-9.37-11.5-14.06-.07-.09-.14-.2-.14-.31-.01-.6,0-1.2,0-1.9.79.98,1.52,1.88,2.24,2.78,2.85,3.53,5.7,7.07,8.54,10.6,1.02,1.26,2.04,2.53,3.06,3.79.44.55.32.95-.4,1.28Z"/>
  </g>
  <rect class="cls-1" x=".5" y=".5" width="118.59" height="118.59" rx="10.6" ry="10.6"/>
</svg>