<?xml version="1.0" encoding="UTF-8"?>
<svg id="Layer_1" data-name="Layer 1" xmlns="http://www.w3.org/2000/svg" viewBox="0 0 204.5 174.7">
  <defs>
    <style>
      .cls-1 {
        fill: #dce0e8;
      }

      .cls-1, .cls-2 {
        fill-rule: evenodd;
      }

      .cls-2 {
        fill: #c5c7c8;
      }
    </style>
  </defs>
  <path class="cls-2" d="m49.1,171.3c-23.4-17.7-38.5-45.7-38.5-77.3C10.6,59.8,28.3,29.8,55.1,12.5c-7.9,11.2-14.5,27.3-12.9,43.8,2.4,23.7,16.6,36.1,27.5,42.2,7.5,4.3,21.1,6.1,40.6,11.9,14.5,4.3,23.6,11,27.2,13.8,5.3,4.1,7.9,9.6,7.9,16.8,0,7.8-3,19-8.9,24.9-5.9,5.8-15,8.8-27.2,8.8-22.8,0-43.5-8.4-60-26.4l-.2,23ZM168.6,18.7c21.9,17.8,35.9,44.9,35.9,75.3s-13.7,57-35.3,74.8l.3-.5c9.1-16.3,8.6-45.2-3-59.7-14-17.4-27.9-22.3-50.2-28.9-18.7-5.5-37.4-5.3-42-27.3-3.6-16.8,11.1-28.4,26.2-32.2,13.4-3.4,26.5-.1,35.8,3,9.5,3.2,28.3,20.5,32.4,22.2l-.1-26.7Z"/>
  <path class="cls-1" d="m38.5,158.8C15.1,141.1,0,113.1,0,81.5,0,47.3,17.7,17.3,44.5,0c-7.9,11.2-14.5,27.3-12.9,43.8,2.4,23.7,16.7,36.1,27.5,42.2,7.5,4.3,21.1,6.1,40.6,11.9,14.5,4.3,23.6,11,27.2,13.8,5.3,4.1,7.9,9.6,7.9,16.8,0,7.8-3,19-8.9,24.9-5.9,5.8-15,8.8-27.2,8.8-22.8,0-43.5-8.3-60-26.4l-.2,23ZM158,6.2c21.9,17.8,35.9,44.9,35.9,75.3s-13.7,57-35.3,74.8l.3-.5c9.1-16.3,8.6-45.2-3-59.7-14-17.4-27.9-22.3-50.2-28.9-18.7-5.5-37.4-5.3-42-27.3-3.6-16.9,11.1-28.4,26.2-32.3,13.4-3.4,26.5-.1,35.8,3,9.5,3.2,28.3,20.5,32.4,22.2l-.1-26.6Z"/>
</svg>