<?xml version="1.0" encoding="UTF-8"?>
<svg id="Layer_1" data-name="Layer 1" xmlns="http://www.w3.org/2000/svg" viewBox="0 0 119.59 119.59">
  <defs>
    <style>
      .cls-1 {
        fill: #ec828a;
      }

      .cls-2 {
        fill: #231f20;
      }
    </style>
  </defs>
  <g>
    <path class="cls-1" d="m40.5,93.16c10.23-2.9,20.47-5.81,30.7-8.71,13.65-3.88,27.3-7.75,40.94-11.63.62-.18.71-.34.54-.96-2.24-7.95-4.48-15.9-6.71-23.86-2.49-8.87-4.98-17.73-7.47-26.6-.2-.7-.36-.81-.95-.65-15.22,4.28-30.44,8.56-45.66,12.83-.02-.06-.03-.11-.05-.17-15.21,4.27-30.41,8.55-45.62,12.82-.67.19-.77.36-.54,1.06.65,2.02,1.31,4.03,1.97,6.05,1.09,3.33,2.18,6.67,3.27,10,.7,2.14,1.4,4.27,2.09,6.41.54,1.68,1.14,3.35,1.59,5.06.79,2.99,1.48,6.01,2.21,9.02,1.15,4.73,2.29,9.45,3.44,14.18.17.7.32.8.94.62,6.43-1.82,12.87-3.65,19.3-5.47Z"/>
    <path d="m71.2,84.45c13.65-3.88,27.3-7.75,40.94-11.63.62-.18.71-.34.54-.96-2.24-7.95-4.48-15.9-6.71-23.86-2.49-8.87-4.98-17.73-7.47-26.6-.2-.7-.36-.81-.95-.65-15.22,4.28-30.44,8.56-45.66,12.83-.02-.06-.03-.11-.05-.17-15.21,4.27-30.41,8.55-45.62,12.82-.67.19-.77.36-.54,1.06.65,2.02,1.31,4.03,1.97,6.05,1.09,3.33,2.18,6.67,3.27,10,.7,2.14,1.4,4.27,2.09,6.41.54,1.68,1.14,3.35,1.59,5.06.79,2.99,1.48,6.01,2.21,9.02,1.15,4.73,2.29,9.45,3.44,14.18.17.7.32.8.94.62,6.43-1.82,12.87-3.65,19.3-5.47,10.23-2.9,20.47-5.81,30.7-8.71Zm40.18-13.57c-.75-.58-1.5-1.16-2.25-1.73h0c-4.12-3.18-8.2-6.32-12.35-9.52,0,0,0,0,.01,0l-2.49-1.92c-1.82-1.4-3.64-2.8-5.46-4.21,0,0,0,0,0,0l-1.07-.82s0,0,0,0c-1.45-1.12-2.8-2.17-4.19-3.24,1.01-1.92,2.02-3.82,3.02-5.72,0,0,0,0,0,0l.8-1.51s.03-.07.04-.11c2.81-5.33,5.64-10.66,8.46-15.98.02-.04.04-.08.07-.13l.8-1.5c.04-.12.09-.24.17-.36.31-.48.55-1.01.85-1.58,4.54,16.14,9.04,32.18,13.59,48.33Zm-93.15-1.49c-2.1-6.44-4.21-12.88-6.33-19.36,27.38-7.6,54.74-15.18,82.16-22.79-.03.12-.04.18-.06.23-2.69,5.09-5.39,10.17-8.07,15.26l-.83,1.6s0,0,0,0c-.06.11-.12.22-.18.33l-2.45,4.74c-.09.31.03.48.41.77.4.31.81.62,1.21.93l-65.22,20.21-.61-1.96-.04.03Zm-11.52-22.16c30.03-8.38,60.04-16.75,90.15-25.15-.73,1.37-1.4,2.65-2.1,3.91-.08.15-.3.22-.48.27-6.51,1.81-13.02,3.6-19.52,5.41-21.07,5.85-42.14,11.7-63.21,17.55-.64.18-.69.32-.46,1.01.69,2.07,1.36,4.13,2.04,6.2,1.09,3.35,2.19,6.69,3.28,10.04.56,1.7,1.11,3.41,1.66,5.11l-3.13.97c-2.74-8.42-5.48-16.83-8.25-25.31Zm78,4.36c.71.54,1.42,1.09,2.13,1.63.05.04.1.08.2.18.09-.01,2.75,2.13,2.75,2.13l10.81,8.32c2.12,1.63,4.24,3.27,6.38,4.92-27.68,7.91-55.26,15.79-82.89,23.69-1.48-6.14-2.95-12.21-4.42-18.31-.04-.17-.08-.34-.12-.51,0,0-.01,0-.02,0l-.45-1.58h0s-.02-.06-.03-.08h0s-.02-.05-.02-.05l65.65-20.35ZM15.58,74.65l-.08-.31-.28-.98c-.02-.07-.05-.15-.07-.22l3.12-.97.58,2.03c.92,3.81,1.83,7.61,2.75,11.42.58,2.4,1.17,4.81,1.75,7.21.15.61.28.68.84.52,9.67-2.77,19.34-5.54,29.01-8.3,15.94-4.56,31.88-9.11,47.82-13.66,2.16-.62,4.32-1.25,6.48-1.89.23-.07.4-.03.6.13.86.68,1.73,1.33,2.6,1.99.13.1.25.2.45.35-30.04,8.52-60,17.02-90.02,25.54-1.86-7.67-3.71-15.26-5.56-22.87Z"/>
  </g>
  <path class="cls-2" d="m108.49,119.59H11.1c-6.12,0-11.1-4.98-11.1-11.1V11.1C0,4.98,4.98,0,11.1,0h97.39c6.12,0,11.1,4.98,11.1,11.1v97.39c0,6.12-4.98,11.1-11.1,11.1ZM11.1,1C5.53,1,1,5.53,1,11.1v97.39c0,5.57,4.53,10.1,10.1,10.1h97.39c5.57,0,10.1-4.53,10.1-10.1V11.1c0-5.57-4.53-10.1-10.1-10.1H11.1Z"/>
</svg>