<?xml version="1.0" encoding="UTF-8"?>
<svg id="Layer_1" data-name="Layer 1" xmlns="http://www.w3.org/2000/svg" viewBox="0 0 247.72 154.92">
  <path d="m217.53,136.02c1.55,11.52-4.69,18.57-16.88,18.77-13.16.22-26.32.1-39.48.1-47.47,0-94.95-.01-142.42-.04-1.82,0-3.67-.07-5.47-.36-10.52-1.65-14.68-7.59-12.88-18.53,1.07-.14,2.19-.38,3.33-.42,7.25-.32,7.23-.3,7.22-7.79-.02-32.48-.02-64.96-.02-97.45,0-7.37,1.83-9.32,9.01-9.34,30.98-.07,61.97-.09,92.95-.12,1.63,0,3.26.16,4.95.25.54,4.62-2.6,3.78-4.83,3.79-19.99.07-39.98.06-59.97.07-10.49,0-20.99.17-31.48-.06-4.66-.11-6.55,1.34-6.53,6.25.14,33.15.12,66.3-.03,99.44-.02,4.06,1.38,5.01,5.19,4.99,22.32-.16,44.64-.06,66.96-.13,3.3,0,6.24-.03,7.61,3.92.32.93,2.38,1.76,3.66,1.79,7.33.13,14.66.12,21.98-.14,1.34-.05,2.62-1.48,3.93-2.26,1.8-1.07,3.6-3.04,5.41-3.05,28.32-.21,56.63-.18,84.95-.17.96,0,1.92.33,2.83.5Zm-3.97,3.9c-2.07,0-3.55,0-5.03,0-24.48,0-48.96.02-73.44-.06-3.44-.01-6.42.13-8.61,3.52-.73,1.13-3.2,1.54-4.89,1.58-7.66.15-15.32-.05-22.98.1-3.37.07-6.09-.31-8.12-3.56-.7-1.12-3.06-1.66-4.67-1.67-25.48-.07-50.96,0-76.44.03-1.63,0-3.26,0-4.87,0-.28,7.51,3.71,10.76,12.5,10.76,60.45-.05,120.9-.09,181.35-.17,2.32,0,4.74.04,6.93-.57,4.6-1.28,7.98-3.92,8.25-9.96Z"/>
  <path d="m145.12,77.03q14.55-.76,14.53,13.92c0,2.33.03,4.67-.09,6.99-.41,7.71-3.87,11.21-11.55,11.21-3.66,0-6.37.43-8.62,4.05-2.39,3.87-8.42,3.72-11.97.52-3.26-2.95-3.41-8.49-.3-11.66,3.31-3.38,8.56-3.33,12.2-.21,1.6,1.37,3.66,2.95,5.59,3.07,9.28.56,10.29-.55,10.16-9.98-.06-4.45,1.28-10.52-1.04-12.88-2.28-2.33-8.39-1.01-12.83-1.1-14.48-.3-25.95-10.46-27.2-24.2-1.37-15.06,7.78-27.22,22.72-29.76,3-.51,4.37-1.54,5.46-4.48,4.78-12.98,13.96-21.03,27.97-22.33,14.42-1.34,25.06,4.85,32.03,17.54.66,1.2,2.32,2.33,3.68,2.57,10.77,1.93,17.6,7.95,20.57,18.58.37,1.33,2.61,2.64,4.22,3.06,16.27,4.27,22.36,21.8,11.84,34.45-3.84,4.62-8.81,6.98-14.8,7.12-3.83.09-7.67.19-11.48-.03-1.06-.06-2.05-1.27-3.07-1.95,1.08-.74,2.1-2.02,3.24-2.12,3.3-.3,6.65-.14,9.98-.16,9.3-.06,16.51-6.61,17.04-15.46.52-8.68-6.47-17.24-15.4-17.82-4.29-.28-5.4-1.74-5.99-5.76-1.29-8.84-8.67-15.01-17.72-15.29-2.92-.09-4.34-1.03-5.53-3.78-4.7-10.83-15.73-17.74-26.48-17-12.75.88-23.26,8.86-26.31,20.91-1.14,4.48-3.23,5.58-7.42,6-10.71,1.06-18.81,9.18-20.34,19.63-1.42,9.73,4.11,20.38,13.32,23.98,4.2,1.64,9.04,1.63,13.59,2.36Zm-5.97,30.51c-3.02-1.83-4.82-3.79-6.25-3.54-1.49.26-2.62,2.63-3.9,4.09,1.37,1.21,2.74,3.38,4.1,3.37,1.58,0,3.16-1.93,6.05-3.92Z"/>
  <path d="m199.27,78.37c0-5.99-.12-11.98.05-17.97.1-3.44-.29-6.13-3.42-8.57-3.72-2.91-3.71-7.85-.92-11.16,2.63-3.12,7.31-3.8,10.87-1.59,3.51,2.19,4.85,6.6,3.14,10.5-.33.75-.69,1.8-1.3,2.05-5.17,2.1-4.04,6.54-4.07,10.56-.1,11.65-.23,23.3-.26,34.94-.02,6.44,1.59,7.99,7.95,7.9,4.04-.06,7.83.34,11.19-3.53,2.9-3.34,9.33-1.7,11.85,1.97,2.41,3.5,1.77,8.06-1.51,10.78-3.55,2.94-9.41,2.66-11.91-1.41-2.16-3.54-4.82-4-8.28-3.76-1.49.1-3,.07-4.49-.01-5.53-.3-8.92-3.7-8.99-9.24-.09-7.15-.02-14.31-.02-21.47h.13Zm33.92,29.42c-2.74-1.81-4.35-3.67-5.97-3.69-1.32-.01-2.66,2.19-4,3.4,1.52,1.43,2.84,3.51,4.62,4.05,1.02.31,2.8-1.88,5.34-3.76Zm-31.81-56.29c1.84-2.53,3.95-4.22,3.69-5.36-.38-1.6-2.37-3.55-3.96-3.87-1.04-.2-3.7,2.26-3.66,3.47.05,1.6,2.02,3.14,3.94,5.75Z"/>
  <path d="m181.27,92.82c0,4.17-.02,8.33,0,12.5.03,3.92-.35,7.57,3.96,10.38,3.56,2.32,2.81,8.62-.42,11.56-3.2,2.91-8.1,2.72-11.3-.42-3.3-3.25-3.67-8.85.07-11.47,3.52-2.47,3.64-5.42,3.6-8.97-.11-9.66.05-19.33-.22-28.99-.05-1.73-1.28-3.94-2.67-5.01-3.49-2.7-4.47-6.46-2.76-9.71,1.3-2.47,4.68-4.67,7.51-5.29,3.69-.82,6.75,1.7,7.91,5.42,1.13,3.61.17,6.71-2.89,9.36-1.36,1.18-2.45,3.35-2.57,5.15-.34,5.14-.12,10.32-.12,15.49h-.09Zm-1.82,22.47c-2.07,2.63-4.24,4.19-4.19,5.67.05,1.48,2.25,3.92,3.64,4.02,1.33.1,3.81-2.13,4.02-3.59.22-1.47-1.74-3.25-3.48-6.1Zm5.14-49.77c-2.34-2.03-3.94-4.38-5.05-4.16-1.62.31-2.88,2.47-4.3,3.84,1.28,1.29,2.45,3.42,3.88,3.61,1.35.18,2.97-1.68,5.47-3.28Z"/>
  <path d="m123.06,21.31h11.43c-2.06,4.29-5.76,3.42-8.62,3.82-1.13.16-2.51-1.4-3.77-2.17.32-.55.64-1.1.95-1.65Z"/>
</svg>